<svg xmlns="http://www.w3.org/2000/svg" width="1920" height="1080" viewBox="0 0 1920 1080" fill="none">
  <g clip-path="url(#clip0_1_15)" filter="url(#filter0_n_1_15)">
    <rect width="1920" height="1080" fill="url(#paint0_linear_1_15)"/>
    <g opacity="0.83" filter="url(#filter1_n_1_15)">
      <path d="M1610 1259C1850.21 1523.1 1989.23 917.485 2054.48 856.728C2058.67 838.46 2070.5 680.682 2084.28 195.715C2098.05 -289.252 92.1291 -96.2892 -79 -7.00001C-486.706 214.618 -566.562 193.538 -494.185 404.382C-421.808 615.227 -210 1207.5 217 1142C382.315 1116.64 1369.79 994.896 1610 1259Z" fill="url(#paint1_linear_1_15)"/>
    </g>
    <path d="M1023.4 121.2C1038.2 126.8 1047.4 140.6 1046.2 155.4C1045.6 164.2 1041.2 173 1035 177.6C1034.6 178 1034 178.4 1033.6 178.6C1025.4 184.4 1015.4 187 1005.6 186.4C1004.4 186.2 1003.8 186.2 1003.8 186.2C975.4 184.8 960 195.6 953.4 202V257H932V117H994.2C999.6 117 1005.4 117.2 1011 118C1015.4 118.6 1019.4 119.6 1023.4 121.2ZM1029.6 153C1030.6 139.2 1023.2 126.4 1010.4 120C1005 119.2 999.4 119.2 994.2 119.2H953.4V199.2C957.4 195.8 963.2 191.6 971.6 188.4C971.8 188.4 972 188.4 972.4 188.2C978.4 186.2 985.6 184.6 994.4 184.2C1003.2 183.8 1011.8 180.8 1018.8 175.2H1019C1024.8 170.6 1029 162 1029.6 153ZM1136.73 149.6L1137.33 150.2L1130.13 169.6L1128.93 168.4C1128.33 167.8 1119.73 159 1107.73 156.4C1095.73 154 1083.73 160.2 1078.33 171V257H1059.13V142.6H1078.33V166.8C1081.93 160.6 1090.73 148.4 1104.53 144.2C1114.73 141 1125.53 143 1136.73 149.6ZM1199.52 142.6C1232.92 143.2 1259.92 168.6 1259.92 199.8C1259.92 231.2 1232.92 256.6 1199.52 257C1199.32 257 1198.92 257 1198.52 257C1198.32 257 1197.92 257 1197.52 257C1164.12 256.6 1137.32 231.2 1137.32 199.8C1137.32 168.6 1164.12 143.2 1197.52 142.6C1197.92 142.6 1198.32 142.6 1198.52 142.6C1198.92 142.6 1199.32 142.6 1199.52 142.6ZM1199.52 255C1220.52 254.2 1237.32 229.8 1237.32 199.8C1237.32 170 1220.52 145.4 1199.52 144.8C1199.32 144.8 1198.92 144.8 1198.52 144.8C1198.32 144.8 1197.92 144.8 1197.52 144.8C1176.72 145.4 1159.72 170 1159.72 199.8C1159.72 229.8 1176.72 254.2 1197.52 255C1197.92 255 1198.32 255 1198.52 255C1198.92 255 1199.32 255 1199.52 255ZM1288.29 251V142.2H1307.49V248.2C1307.49 264.8 1295.89 278.6 1280.49 282C1280.29 282 1280.09 282 1280.09 282C1277.69 282.6 1275.49 282.8 1273.09 282.8C1272.69 282.8 1271.89 282.8 1270.29 282.8C1264.49 282.8 1250.49 281.4 1241.09 268.8L1240.69 268L1253.09 253.8L1253.69 255.8C1253.69 256 1260.49 282 1279.69 280C1279.89 280 1279.89 280 1280.09 280C1285.49 278.4 1288.29 264 1288.29 251ZM1298.09 136C1298.09 126 1290.09 118 1280.09 118C1290.09 118 1298.09 109.8 1298.09 100C1298.09 109.8 1306.09 118 1316.09 118C1306.09 118 1298.09 126 1298.09 136ZM1424.87 207L1425.07 205.4L1444.87 216.2L1444.47 217C1436.27 241 1412.47 257 1385.07 257C1350.67 257 1322.87 231.2 1322.87 199.6C1322.87 167.8 1350.67 142.2 1385.07 142.2C1400.67 142.2 1415.67 147.4 1427.27 157.2C1438.67 166.8 1445.87 180 1447.27 194.2V195.4H1355.27V193.4H1424.87C1422.67 165.6 1405.27 144.2 1385.07 144.2C1363.07 144.2 1345.07 169 1345.07 199.6C1345.07 230.2 1363.07 255 1385.07 255C1405.07 255 1422.27 234.4 1424.87 207ZM1561.26 214.4L1561.46 213L1584.86 225L1584.46 225.8C1572.86 245.2 1549.66 257.2 1523.86 257.2C1486.46 257.2 1456.26 231.6 1456.26 200C1456.26 168.6 1486.46 142.8 1523.86 142.8C1549.66 142.8 1572.86 155 1584.46 174.4L1584.86 175.2L1561.46 187.2L1561.26 185.6C1556.86 162.2 1541.86 145.6 1524.86 145C1524.46 145 1524.26 145 1523.86 145C1502.66 145 1481.06 169.6 1481.06 200C1481.06 230.4 1502.66 255.2 1523.86 255.2C1524.26 255.2 1524.46 255.2 1524.86 255.2C1541.86 254.6 1556.86 237.8 1561.26 214.4ZM1652.17 228L1664.77 242.2L1664.37 243C1654.97 255.6 1640.97 257 1634.97 257C1633.57 257 1632.57 257 1632.37 257C1613.37 257 1597.97 241.4 1597.97 222.4V117H1617.17V172.6H1644.57V186L1617.17 174.8V225.2C1617.17 238.2 1619.97 252.6 1625.37 254.2C1625.57 254.2 1625.57 254.2 1625.77 254.2C1644.97 256.2 1651.77 230.2 1651.77 229.8L1652.17 228ZM1773.64 218.2C1774.84 234.6 1764.04 244 1754.84 248.8C1754.64 248.8 1754.64 248.8 1754.64 248.8C1746.44 253.2 1736.24 255 1726.64 255C1719.84 255 1713.24 254.2 1708.24 252.6C1685.44 245.6 1674.44 230.4 1669.24 218.8L1669.04 218L1690.24 212L1690.64 212.6C1690.64 212.8 1696.04 224 1706.64 233.6C1717.44 243.8 1729.44 248.8 1742.44 248.6C1751.24 248.6 1759.64 245.2 1765.24 238.6C1768.64 234.8 1771.04 229.8 1771.64 223.8C1771.44 218 1769.84 210 1763.24 204.8C1755.44 198.8 1745.04 201 1732.04 204C1722.84 206 1712.44 208.2 1700.64 208.2H1700.44C1685.64 208.2 1677.24 203.2 1672.64 198.2C1667.84 193.2 1666.84 188.2 1666.64 188.2C1664.44 181 1666.24 171.8 1672.64 164.6C1682.44 152.4 1694.64 145.6 1708.64 144C1737.24 140.8 1764.44 161.8 1764.64 162L1765.44 162.6L1749.64 178L1749.04 177.4C1748.64 177 1714.64 144 1682.24 159.4C1679.04 161 1676.24 163.2 1674.04 165.6C1673.84 165.8 1673.64 166 1673.64 166.2H1673.44C1667.44 173.4 1666.04 182.4 1669.04 189C1672.84 197.8 1681.64 198.6 1695.64 195.6C1719.64 190.2 1746.84 184 1761.44 193.8C1768.04 198.4 1772.84 208 1773.64 218.2Z" fill="black"/>
    <line y1="-0.5" x2="1088" y2="-0.5" transform="matrix(-1 0 0 1 1931 309)" stroke="black"/>
    <path d="M1196.65 344C1198.01 331.754 1206.8 308.101 1231.03 308.911C1231.72 308.977 1232.38 309.015 1233 309.029C1232.33 308.972 1231.68 308.933 1231.03 308.911C1219.77 307.836 1199.81 299.395 1196.65 272C1195.74 283.58 1187.71 306.701 1162.99 308.899C1162.29 308.917 1161.63 308.962 1161 309.029C1161.68 309 1162.34 308.957 1162.99 308.899C1174.24 308.604 1194.02 315.079 1196.65 344Z" fill="#101010"/>
    <path d="M1102.79 330C1103.62 322.517 1108.99 308.062 1123.8 308.557C1124.22 308.597 1124.62 308.62 1125 308.629C1124.59 308.594 1124.19 308.57 1123.8 308.557C1116.92 307.9 1104.72 302.741 1102.79 286C1102.23 293.077 1097.32 307.206 1082.22 308.549C1081.79 308.56 1081.38 308.588 1081 308.629C1081.41 308.611 1081.82 308.585 1082.22 308.549C1089.09 308.369 1101.18 312.326 1102.79 330Z" fill="#101010"/>
    <path d="M842.786 331C843.619 323.517 848.991 309.062 863.798 309.557C864.22 309.597 864.622 309.62 865 309.629C864.593 309.594 864.192 309.57 863.798 309.557C856.916 308.9 844.718 303.741 842.786 287C842.231 294.077 837.324 308.206 822.219 309.549C821.791 309.56 821.384 309.588 821 309.629C821.413 309.611 821.82 309.585 822.219 309.549C829.094 309.369 841.178 313.326 842.786 331Z" fill="#101010"/>
  </g>
  <defs>
    <filter id="filter0_n_1_15" x="0" y="0" width="1920" height="1080" filterUnits="userSpaceOnUse" color-interpolation-filters="sRGB">
      <feFlood flood-opacity="0" result="BackgroundImageFix"/>
      <feBlend mode="normal" in="SourceGraphic" in2="BackgroundImageFix" result="shape"/>
      <feTurbulence type="fractalNoise" baseFrequency="2 2" stitchTiles="stitch" numOctaves="3" result="noise" seed="868"/>
      <feColorMatrix in="noise" type="luminanceToAlpha" result="alphaNoise"/>
      <feComponentTransfer in="alphaNoise" result="coloredNoise1">
        <feFuncA type="discrete" tableValues="1 1 1 1 1 1 1 1 1 1 1 1 1 1 1 1 1 1 1 1 1 1 1 1 1 1 1 1 1 1 1 1 1 1 1 1 1 1 1 1 1 1 1 1 1 1 1 1 1 1 1 0 0 0 0 0 0 0 0 0 0 0 0 0 0 0 0 0 0 0 0 0 0 0 0 0 0 0 0 0 0 0 0 0 0 0 0 0 0 0 0 0 0 0 0 0 0 0 0 0 "/>
      </feComponentTransfer>
      <feComposite operator="in" in2="shape" in="coloredNoise1" result="noise1Clipped"/>
      <feFlood flood-color="rgba(255, 255, 255, 0.25)" result="color1Flood"/>
      <feComposite operator="in" in2="noise1Clipped" in="color1Flood" result="color1"/>
      <feMerge result="effect1_noise_1_15">
        <feMergeNode in="shape"/>
        <feMergeNode in="color1"/>
      </feMerge>
    </filter>
    <filter id="filter1_n_1_15" x="-518.018" y="-121.004" width="2602.37" height="1446.35" filterUnits="userSpaceOnUse" color-interpolation-filters="sRGB">
      <feFlood flood-opacity="0" result="BackgroundImageFix"/>
      <feBlend mode="normal" in="SourceGraphic" in2="BackgroundImageFix" result="shape"/>
      <feTurbulence type="fractalNoise" baseFrequency="0.55555558204650879 0.55555558204650879" stitchTiles="stitch" numOctaves="3" result="noise" seed="1781"/>
      <feColorMatrix in="noise" type="luminanceToAlpha" result="alphaNoise"/>
      <feComponentTransfer in="alphaNoise" result="coloredNoise1">
        <feFuncA type="discrete" tableValues="1 1 1 1 1 1 1 1 1 1 1 1 1 1 1 1 1 1 1 1 1 1 1 1 1 1 1 1 1 1 1 1 1 1 1 1 1 1 1 1 1 1 1 1 1 1 1 1 1 1 1 0 0 0 0 0 0 0 0 0 0 0 0 0 0 0 0 0 0 0 0 0 0 0 0 0 0 0 0 0 0 0 0 0 0 0 0 0 0 0 0 0 0 0 0 0 0 0 0 0 "/>
      </feComponentTransfer>
      <feComposite operator="in" in2="shape" in="coloredNoise1" result="noise1Clipped"/>
      <feFlood flood-color="rgba(255, 255, 255, 0.25)" result="color1Flood"/>
      <feComposite operator="in" in2="noise1Clipped" in="color1Flood" result="color1"/>
      <feMerge result="effect1_noise_1_15">
        <feMergeNode in="shape"/>
        <feMergeNode in="color1"/>
      </feMerge>
    </filter>
    <linearGradient id="paint0_linear_1_15" x1="869.5" y1="980" x2="568.5" y2="370" gradientUnits="userSpaceOnUse">
      <stop stop-color="#F7C3EF"/>
      <stop offset="1" stop-color="#E292A9"/>
    </linearGradient>
    <linearGradient id="paint1_linear_1_15" x1="1114.05" y1="97.7138" x2="1615.32" y2="1086.29" gradientUnits="userSpaceOnUse">
      <stop stop-color="#FD618D"/>
      <stop offset="1" stop-color="#965BC3"/>
    </linearGradient>
    <clipPath id="clip0_1_15">
      <rect width="1920" height="1080" fill="white"/>
    </clipPath>
  </defs>
</svg>